<?xml version="1.0" encoding="UTF-8"?>
<svg width="38px" height="53px" viewBox="0 0 38 53" version="1.1" xmlns="http://www.w3.org/2000/svg" xmlns:xlink="http://www.w3.org/1999/xlink" xmlns:sketch="http://www.bohemiancoding.com/sketch/ns">
    <!-- Generator: Sketch 3.4.2 (15855) - http://www.bohemiancoding.com/sketch -->
    <title>light_bulb</title>
    <desc>Created with Sketch.</desc>
    <defs></defs>
    <g id="Page-1" stroke="none" stroke-width="1" fill="none" fill-rule="evenodd" sketch:type="MSPage">
        <g id="light_bulb" sketch:type="MSLayerGroup" transform="translate(3.000000, 3.000000)" stroke="#00A3E0">
            <g id="icons" sketch:type="MSShapeGroup">
                <g id="light_bulb">
                    <g id="light-bulb">
                        <path d="M31.8888857,15.8514909 C31.8888857,6.84828942 24.3731714,-0.401578963 15.2654571,0.0172807633 C7.13688571,0.391058857 0.538314286,6.97782778 0.1606,15.0953749 C-0.132257143,21.3856893 3.24945714,26.9141812 8.34402857,29.7289299 L8.34402857,36.7964745 C8.34402857,37.5845471 8.98345714,38.2231085 9.7726,38.2231085 L22.2591714,38.2231085 C23.0483143,38.2231085 23.6877429,37.5845471 23.6877429,36.7964745 L23.6877429,29.7289299 C28.5771714,27.0274559 31.8888857,21.8265192 31.8888857,15.8514909 L31.8888857,15.8514909 Z" id="Stroke-1" stroke-width="5.7"></path>
                        <path d="M23.2241429,46.7623228 L8.93842857,46.7623228 C8.54385714,46.7623228 8.22414286,46.4430421 8.22414286,46.0490058 L8.22414286,46.0490058 C8.22414286,45.6549695 8.54385714,45.3356888 8.93842857,45.3356888 L23.2241429,45.3356888 C23.6187143,45.3356888 23.9384286,45.6549695 23.9384286,46.0490058 L23.9384286,46.0490058 C23.9384286,46.4430421 23.6187143,46.7623228 23.2241429,46.7623228 L23.2241429,46.7623228 Z" id="Stroke-5" stroke-width="4.75"></path>
                    </g>
                </g>
            </g>
        </g>
    </g>
</svg>