<?xml version="1.0" encoding="UTF-8"?>
<svg width="404px" height="74px" viewBox="0 0 404 74" version="1.1" xmlns="http://www.w3.org/2000/svg" xmlns:xlink="http://www.w3.org/1999/xlink" xmlns:sketch="http://www.bohemiancoding.com/sketch/ns">
    <!-- Generator: Sketch 3.4.2 (15855) - http://www.bohemiancoding.com/sketch -->
    <title>asu_logo</title>
    <desc>Created with Sketch.</desc>
    <defs></defs>
    <g id="Page-1" stroke="none" stroke-width="1" fill="none" fill-rule="evenodd" sketch:type="MSPage">
        <g id="asu_logo" sketch:type="MSLayerGroup" fill="#FFFFFF">
            <g id="Page-1" sketch:type="MSShapeGroup">
                <g id="asu_logo">
                    <g id="asu_university_horiz_cmyk_print_white">
                        <path d="M179.920673,8.66318445 C179.563701,10.0897703 179.167065,11.5584967 178.770429,12.9850826 C178.175476,15.0871586 177.10456,18.379089 176.469942,20.4811651 L183.569721,20.4811651 L179.920673,8.66318445 L179.920673,8.66318445 Z M183.688712,2 L194,30 L186.544489,30 L185.156264,25.5169758 L174.843736,25.5169758 L173.455511,30 L166,30 L176.390615,2 L183.688712,2 L183.688712,2 L183.688712,2 Z" id="Fill-1"></path>
                        <path d="M201.979441,10.271678 C203.335064,9.17312814 204.8103,8.30304824 208,8 L208,13.1518201 L205.966566,13.4548683 C203.01734,13.9473217 202.138926,14.3628292 202.138926,16.8629772 L202.138926,28 L196,28 L196,8.18822137 L201.979441,8.18822137 L201.979441,10.271678" id="Fill-2"></path>
                        <path d="M210,30 L216,30 L216,9.28653523 L210,9.28653523 L210,30 L210,30 Z M210,6.71452568 L216,6.71452568 L216,2 L210,2 L210,6.71452568 L210,6.71452568 Z" id="Fill-3"></path>
                        <path d="M219.13215,8 L236,8 L236,12.5201461 L225.509926,23.4020236 L236,23.4020236 L236,28 L218,28 L218,23.5552895 L228.642207,12.5201461 L219.13215,12.5201461 L219.13215,8" id="Fill-4"></path>
                        <path d="M245.098435,14.9002334 C244.353295,16.0924183 244.07877,17.5230401 244.07877,18.953662 C244.07877,22.2520402 245.647485,25.1530234 249.018996,25.1530234 C252.274079,25.1530234 253.882012,22.4904771 253.882012,19.2318385 C253.882012,16.9269477 253.332962,15.1386704 252.195644,14.0259645 C250.940672,12.8337796 249.528828,12.795282 248.666035,12.8735191 C246.941675,12.9939795 245.920784,13.58883 245.098435,14.9002334 L245.098435,14.9002334 Z M260,18.9934015 C260,24.2377731 257.019442,30 249.018996,30 C243.255195,30 238,26.6631242 238,18.9934015 C238,12.636324 241.961005,7.58816616 249.803354,8.02654247 C258.15676,8.50341642 260,15.2181494 260,18.9934015 L260,18.9934015 L260,18.9934015 Z" id="Fill-5"></path>
                        <path d="M268.013336,10.4672897 C268.595272,9.81063084 268.983229,9.3171729 270.029501,8.78259346 C270.960598,8.3713785 272.279652,8 273.715094,8 C274.917761,8 276.275611,8.24801402 277.323096,8.8635514 C279.45686,10.0560748 280,11.988785 280,15.3196262 L280,30 L274.064255,30 L274.064255,17.9102804 C274.064255,15.9788551 274.02546,15.2797897 273.792685,14.7028037 C273.327137,13.5526869 272.279652,13.0579439 271.115781,13.0579439 C267.97454,13.0579439 267.97454,15.7308411 267.97454,18.4037383 L267.97454,30 L262,30 L262,8.57698598 L268.013336,8.57698598 L268.013336,10.4672897" id="Fill-6"></path>
                        <path d="M293.004733,20.760725 C291.925825,21.1607478 290.267263,21.7607819 290.267263,23.3596227 C290.267263,24.3609296 291.178889,25.4809932 292.672761,25.4809932 C293.461194,25.4809932 294.208131,25.2009773 294.872074,24.8009546 C296.988394,23.5196318 297.071387,21.6007728 297.112883,19.44065 L293.004733,20.760725 L293.004733,20.760725 Z M284.914219,14.4803682 C285.038708,13.0402864 285.244894,11.3214387 287.195228,9.84135462 C289.187058,8.32126825 291.759839,8 294.291124,8 C296.946897,8 303.377553,8.60128416 303.377553,14.0003409 L303.377553,26.1610319 C303.377553,28.4011592 303.503339,28.7199273 304,29.4412183 L297.73533,29.4412183 L297.73533,27.5211092 C296.116968,28.679925 294.291124,30 291.095896,30 C286.11632,30 284,26.5610546 284,23.6408887 C284,20.2806978 286.78156,18.3605887 288.565908,17.6405478 C290.307463,16.9205068 294.415613,16.2004659 297.112883,15.7204387 L297.112883,14.6016251 C297.02989,13.6403205 296.946897,12.0414796 294.664592,12.0414796 C291.842832,12.0414796 291.469364,13.720325 291.303378,14.4803682 L284.914219,14.4803682 L284.914219,14.4803682 L284.914219,14.4803682 Z" id="Fill-7"></path>
                        <path d="M315.418615,20.7434661 C316.147752,21.5567115 316.75305,22.2062928 318.16836,22.9776706 C320.068919,23.9926415 322.009915,24.358031 323.667849,24.358031 C326.498469,24.358031 328.923451,23.0170008 328.923451,21.0289267 C328.923451,18.755392 326.052394,18.3900025 323.949648,18.1058107 C322.372588,17.9028165 320.796792,17.6998224 319.26017,17.3750317 C317.522625,17.0096422 311.57706,15.7510784 311.57706,9.58132454 C311.57706,2.19233697 318.127922,0 323.060024,0 C329.651324,0 333.211081,3.20730779 335.676501,5.44024359 L330.420899,9.21593504 C329.530012,8.32149201 328.722527,7.5513829 327.589016,6.90053286 C326.57808,6.33341791 324.75966,5.64323776 322.939976,5.64323776 C320.109356,5.64323776 318.694046,7.26592235 318.694046,8.64628267 C318.694046,10.8398884 321.120292,11.164679 322.333414,11.3270743 C325.366221,11.6924638 329.449137,12.462573 331.066634,13.0309566 C334.342066,14.2489216 336,16.8066481 336,20.0545547 C336,22.1238264 335.231689,24.3973611 333.736768,26.1431109 C331.148773,29.1474245 327.022892,30 323.020851,30 C314.973803,30 311.779247,26.2661761 310,24.1956356 L315.418615,20.7434661" id="Fill-8"></path>
                        <path d="M339.223527,2 L345.715666,2 L345.715666,8.25997046 L350,8.25997046 L350,11.8700148 L345.671908,11.8700148 L345.671908,20.8951256 C345.629475,22.1240768 345.629475,23.1598043 347.370525,23.1598043 L349.702974,23.084195 L349.702974,27.6927622 C348.304035,27.8847858 347.454063,28 346.267285,28 C344.017049,28 341.557303,27.8847858 340.157037,26.0413589 C339.265959,24.8508124 339.223527,23.4298375 339.223527,21.508401 L339.223527,11.83161 L336,11.83161 L336,8.22276588 L339.223527,8.22276588 L339.223527,2" id="Fill-9"></path>
                        <path d="M359.003436,20.760725 C357.924528,21.1607478 356.265966,21.7607819 356.265966,23.3596227 C356.265966,24.3609296 357.177592,25.4809932 358.671465,25.4809932 C359.461194,25.4809932 360.206834,25.2009773 360.872074,24.8009546 C362.988394,23.5196318 363.07009,21.6007728 363.111587,19.44065 L359.003436,20.760725 L359.003436,20.760725 Z M350.912922,14.4803682 C351.037412,13.0402864 351.244894,11.3214387 353.195228,9.84135462 C355.187058,8.32126825 357.758542,8 360.289827,8 C362.945601,8 369.376256,8.60128416 369.376256,14.0003409 L369.376256,26.1610319 C369.376256,28.4011592 369.502042,28.7199273 370,29.4412183 L363.734034,29.4412183 L363.734034,27.5211092 C362.116968,28.679925 360.289827,30 357.095896,30 C352.11632,30 350,26.5610546 350,23.6408887 C350,20.2806978 352.778966,18.3605887 354.563315,17.6405478 C356.306166,16.9205068 360.414316,16.2004659 363.111587,15.7204387 L363.111587,14.6016251 C363.028594,13.6403205 362.945601,12.0414796 360.664592,12.0414796 C357.842832,12.0414796 357.469364,13.720325 357.303378,14.4803682 L350.912922,14.4803682 L350.912922,14.4803682 L350.912922,14.4803682 Z" id="Fill-10"></path>
                        <path d="M373.224242,2 L379.716477,2 L379.716477,8.25997046 L384,8.25997046 L384,11.8700148 L379.672727,11.8700148 L379.672727,20.8951256 C379.630303,22.1240768 379.630303,23.1598043 381.369697,23.1598043 L383.701705,23.084195 L383.701705,27.6927622 C382.30303,27.8847858 381.454545,28 380.266667,28 C378.018182,28 375.557576,27.8847858 374.157576,26.0413589 C373.266667,24.8508124 373.224242,23.4298375 373.224242,21.508401 L373.224242,11.83161 L370,11.83161 L370,8.22276588 L373.224242,8.22276588 L373.224242,2" id="Fill-11"></path>
                        <path d="M397.999646,16.397558 C397.886432,15.5300773 397.7343,14.38658 396.905242,13.4809006 C396.188219,12.7304806 395.093814,12.3361712 394.074886,12.3361712 C392.678578,12.3361712 391.697388,13.0459281 391.131317,13.6768231 C390.338817,14.5837347 390.150127,15.5300773 389.961436,16.397558 L397.999646,16.397558 L397.999646,16.397558 Z M403.772392,24.0077294 C403.093107,25.0723647 402.413822,26.0975692 401.396073,27.0833427 C399.69668,28.7394421 397.130491,30 393.961672,30 C388.112271,30 384,26.0975692 384,19.3548785 C384,14.38658 386.338581,8 394.112625,8 C395.282505,8 398.678932,8.1170606 401.206203,10.9573205 C403.772392,13.8345469 403.923345,17.8565027 404,20.1829282 L389.923698,20.1829282 C389.88596,22.7447071 391.282269,25.3077182 394.414529,25.3077182 C397.583348,25.3077182 398.678932,23.1402487 399.394776,21.6813039 L403.772392,24.0077294 L403.772392,24.0077294 L403.772392,24.0077294 Z" id="Fill-12"></path>
                        <path d="M192,38 L192,53.2798892 C191.961448,55.9172366 191.92041,58.554584 190.369644,61.0367934 C187.345216,65.7672929 181.097384,66 179.903531,66 C177.79439,66 175.287299,65.4958012 173.378377,64.5274002 C167.966242,61.8112718 167.966242,57.0032032 168.006038,53.2798892 L168.006038,38 L175.089567,38 L175.089567,55.0639771 C175.089567,56.4602199 175.128118,57.6237555 175.605659,58.475803 C176.481152,59.9120422 178.391317,60.33746 180.142302,60.33746 C184.917715,60.33746 184.917715,57.1571293 184.95751,55.0251926 L184.95751,38 L192,38" id="Fill-13"></path>
                        <path d="M200.013336,48.4672897 C200.595272,47.8106308 200.983229,47.3171729 202.030713,46.7825935 C202.96181,46.3713785 204.280865,46 205.716306,46 C206.918974,46 208.276824,46.248014 209.323096,46.8635514 C211.45686,48.0560748 212,49.988785 212,53.3196262 L212,68 L206.064255,68 L206.064255,55.9102804 C206.064255,53.9788551 206.026672,53.2797897 205.793898,52.7028037 C205.328349,51.5526869 204.280865,51.0579439 203.116993,51.0579439 C199.97454,51.0579439 199.97454,53.7308411 199.97454,56.4037383 L199.97454,68 L194,68 L194,46.576986 L200.013336,46.576986 L200.013336,48.4672897" id="Fill-14"></path>
                        <path d="M216,66 L222,66 L222,45.2865352 L216,45.2865352 L216,66 L216,66 Z M216,42.7145257 L222,42.7145257 L222,38 L216,38 L216,42.7145257 L216,42.7145257 Z" id="Fill-15"></path>
                        <path d="M224,46 L230.49214,46 C233.057431,54.8882237 233.49834,56.7262168 234.179746,60.5590612 C235.021482,56.1143507 235.14173,55.6162366 236.384293,50.9033108 L237.666938,46 L244,46 L237.226029,66 L230.772719,66 L224,46" id="Fill-16"></path>
                        <path d="M257.999646,54.397558 C257.886432,53.5300773 257.73548,52.38658 256.905242,51.4809006 C256.188219,50.7304806 255.093814,50.3361712 254.074886,50.3361712 C252.678578,50.3361712 251.697388,51.0459281 251.131317,51.6768231 C250.339996,52.5837347 250.151306,53.5300773 249.962616,54.397558 L257.999646,54.397558 L257.999646,54.397558 Z M263.773572,62.0077294 C263.094286,63.0723647 262.415001,64.0975692 261.396073,65.0833427 C259.69786,66.7394421 257.13167,68 253.961672,68 C248.11345,68 244,64.0975692 244,57.3548785 C244,52.38658 246.339761,46 254.112625,46 C255.282505,46 258.678932,46.1170606 261.207383,48.9573205 C263.773572,51.8345469 263.924524,55.8565027 264,58.1829282 L249.923698,58.1829282 C249.88714,60.7447071 251.283448,63.3077182 254.415708,63.3077182 C257.584527,63.3077182 258.678932,61.1402487 259.395955,59.6813039 L263.773572,62.0077294 L263.773572,62.0077294 L263.773572,62.0077294 Z" id="Fill-17"></path>
                        <path d="M271.980066,48.271678 C273.335548,47.1731281 274.810631,46.3030482 278,46 L278,51.1518201 L275.966777,51.4548683 C273.016611,51.9473217 272.139535,52.3628292 272.139535,54.8629772 L272.139535,66 L266,66 L266,46.1882214 L271.980066,46.1882214 L271.980066,48.271678" id="Fill-18"></path>
                        <path d="M281.878992,60.4669648 C283.560348,62.0998698 285.639227,63.3366925 287.959372,63.3366925 C289.439465,63.3366925 291.679605,62.8584046 291.679605,61.3039687 C291.679605,60.5852913 291.239577,60.3075355 290.879555,60.1082489 C289.959497,59.6299609 288.519407,59.5103889 287.319332,59.3111023 C286.399275,59.151673 285.439215,58.9523863 284.520408,58.673385 C283.240328,58.3146691 281.960248,57.7965238 281.03894,56.8798052 C280.120133,55.9630867 279.480093,54.5282228 279.480093,52.973787 C279.480093,49.5460567 282.440278,46 288.279392,46 C293.1997,46 296.159885,48.1124384 297.598725,49.1088717 L293.799737,52.6150711 C291.839615,51.1004926 289.9995,50.54249 288.55941,50.54249 C286.15926,50.54249 285.599225,51.5003114 285.599225,52.0969258 C285.599225,53.2926456 286.919307,53.5317896 288.919432,53.8917511 C293.119695,54.6477948 298,55.7638 298,60.7061088 C298,65.6085603 293.03969,68 288.119382,68 C282.31902,68 279.318832,65.2087414 278,63.9731642 L281.878992,60.4669648" id="Fill-19"></path>
                        <path d="M300,66 L306,66 L306,45.2865352 L300,45.2865352 L300,66 L300,66 Z M300,42.7145257 L306,42.7145257 L306,38 L300,38 L300,42.7145257 L300,42.7145257 Z" id="Fill-20"></path>
                        <path d="M311.224548,40 L317.716072,40 L317.716072,46.2599705 L322,46.2599705 L322,49.8700148 L317.673643,49.8700148 L317.673643,58.8951256 C317.629889,60.1240768 317.629889,61.1598043 319.370774,61.1598043 L321.704328,61.084195 L321.704328,65.6927622 C320.304195,65.8847858 319.454304,66 318.267639,66 C316.018941,66 313.558102,65.8847858 312.15797,64.0413589 C311.266976,62.8508124 311.224548,61.4298375 311.224548,59.508401 L311.224548,49.83161 L308,49.83161 L308,46.2227659 L311.224548,46.2227659 L311.224548,40" id="Fill-21"></path>
                        <path d="M344,46 L336.63954,68.5273295 C336.15951,69.8855105 335.719482,71.1637985 334.679417,72.322247 C333.239327,73.8801605 331.83924,73.9600535 330.23914,74 L325.798862,74 L325.798862,69.126527 L327.960248,69.126527 C328.95906,69.0878288 330.519157,69.0878288 330.519157,67.60856 C330.519157,67.0892555 330.359147,66.569951 330.23914,66.1305395 L324,46 L330.55916,46 L333.999375,60.9374944 L337.43959,46 L344,46" id="Fill-22"></path>
                        <path d="M154.508057,3.84080055 L154.508057,4.88332954 L154.723657,4.88332954 C154.936528,4.88332954 155.017037,4.87787128 155.134389,4.87377758 C155.270845,4.86968388 155.719785,4.84512167 155.719785,4.35933591 C155.719785,4.28837844 155.715691,4.04412099 155.45506,3.91175802 C155.324063,3.84625881 155.163045,3.84080055 154.794614,3.84080055 L154.508057,3.84080055 L154.508057,3.84080055 Z M153.889913,3.30316125 L154.951539,3.30316125 C155.393655,3.30725495 155.691129,3.30725495 155.984509,3.54332499 C156.191922,3.71389584 156.351575,3.97725722 156.351575,4.36479418 C156.351575,5.00204685 155.884896,5.22310666 155.696587,5.2790539 L156.436177,6.63406868 L155.723878,6.63406868 L155.063432,5.39777121 L154.508057,5.39777121 L154.508057,6.63406868 L153.889913,6.63406868 L153.889913,3.30316125 L153.889913,3.30316125 Z M154.992475,2 C153.37411,2 152,3.27177621 152,5.00068228 C152,6.77871276 153.432786,8 154.992475,8 C156.685892,8 157.991773,6.67773482 157.999961,5.01705708 C158.008148,3.37275415 156.73638,2 154.992475,2 L154.992475,2 Z M155.000663,7.65203548 C153.535128,7.65203548 152.347962,6.48942461 152.347962,5.00068228 C152.347962,3.54332499 153.510565,2.34932909 155.007485,2.34932909 C156.522145,2.34932909 157.660186,3.5596998 157.650634,5.00750512 C157.642447,6.48123721 156.497583,7.65203548 155.000663,7.65203548 L155.000663,7.65203548 L155.000663,7.65203548 Z" id="Fill-23"></path>
                        <path d="M111.541669,35.4013088 L98.0540063,36.6784361 C97.9360599,36.6896718 97.9225452,36.8607045 98.0380344,36.8906664 L111.035482,40.2763644 C111.492525,40.3949637 111.385636,41.0853365 110.91385,41.0541261 L97.3917864,40.1727461 C97.27384,40.1652556 97.2345245,40.3312946 97.342642,40.3799827 L109.520608,45.7843657 C109.953078,45.9766214 109.739301,46.6382807 109.278572,46.5321655 L96.8204835,43.6782918 C96.8204835,43.6782918 96.3130682,38.0092451 89.8628742,33.488739 C86.4915728,31.1267403 82.378192,29.5487454 78.7623975,28.1480252 C75.9857425,27.0843767 73.3712639,26.0644227 71.4816642,24.867194 C69.3733722,23.5089198 68.3855711,22.0482758 68.3855711,20.2767767 C68.3855711,18.9784265 68.8082124,17.8985486 69.6510377,17.0583662 C71.1044814,15.6127031 73.7484467,14.9622796 77.3224685,14.9922415 C81.1581838,15.0222034 85.2261062,16.7762247 85.2261062,16.7762247 L93.3324643,6.58667198 C93.6482166,6.188428 94.2612922,6.58667198 94.0376855,7.04483981 L88.5236911,18.313022 C88.4720895,18.4178887 88.6010934,18.5202586 88.6883246,18.442857 L98.4827906,9.78011425 C98.8562876,9.44928462 99.3809033,9.94615327 99.0823515,10.3481425 L91.5128953,20.5664087 C91.4428646,20.6612882 91.5522107,20.7848811 91.6529566,20.7237088 L102.914381,13.7650508 C103.334565,13.5066292 103.762121,14.0821479 103.403367,14.4217164 L94.0290852,23.2617339 C93.941854,23.3441292 94.0315424,23.4864484 94.1408886,23.4415055 L106.555976,18.3741942 C107.00319,18.1919258 107.325085,18.8211263 106.922102,19.0882869 L95.9924014,26.3190991 C95.8928841,26.3840166 95.9580004,26.5413167 96.0734896,26.5138516 L109.278572,23.4889452 C109.739301,23.3840785 109.953078,24.0457377 109.520608,24.2379934 L97.342642,29.6423764 C97.2345245,29.6910645 97.27384,29.8571036 97.3917864,29.8496131 L110.91385,28.968233 C111.385636,28.9370227 111.492525,29.6273954 111.035482,29.7459947 L98.0380344,33.1316927 C97.9225452,33.1616547 97.9360599,33.3326873 98.0540063,33.3439231 L111.541669,34.6210503 C112.007312,34.6647448 112.007312,35.3576144 111.541669,35.4013088 L111.541669,35.4013088 Z M106.555976,51.6481649 L97.1522077,47.8092927 C97.1522077,47.8092927 97.1780085,45.577129 96.9298296,44.3212248 L106.922102,50.9340722 C107.325085,51.2012328 107.00319,51.8304333 106.555976,51.6481649 L106.555976,51.6481649 Z M102.945096,56.2760345 L96.7909969,52.4771116 C96.7909969,52.4771116 97.0379472,50.6481855 97.0834057,49.6444609 L103.429168,55.625611 C103.785464,55.9614343 103.360366,56.5319593 102.945096,56.2760345 L102.945096,56.2760345 Z M98.4827906,60.2422449 L95.4149555,57.5256966 C95.4149555,57.5256966 95.8609403,56.4183537 96.0931473,55.6380951 L99.0823515,59.6742166 C99.3809033,60.0762059 98.8562876,60.5730745 98.4827906,60.2422449 L98.4827906,60.2422449 Z M79.9504618,52.5033283 C78.048576,54.2610948 74.5765287,55.1162582 70.7555567,54.7467277 C68.6018062,54.539491 66.3387095,53.4059314 66.3387095,53.4059314 L58.3785558,63.4356872 C58.0615749,63.8339311 57.4484993,63.4344387 57.6733346,62.9762709 L63.1271272,51.8304333 C63.1922435,51.6981014 63.0312958,51.5720117 62.9219496,51.6693879 L53.2405156,60.2310092 C52.86579,60.5630872 52.338717,60.0637217 52.6372689,59.6604841 L60.1416089,49.5308552 C60.2239256,49.4197464 60.0949217,49.2749304 59.9794326,49.3473384 L48.7659239,56.2760345 C48.3506542,56.5319593 47.9255557,55.9614343 48.2818522,55.625611 L57.6463052,46.793084 C57.7396795,46.7044466 57.643848,46.5508917 57.5259016,46.5995798 L45.1378433,51.6556554 C44.6930871,51.8366754 44.3724203,51.2099717 44.7729466,50.9440596 L55.676846,43.7307251 C55.7837349,43.6595655 55.7137043,43.4897813 55.5883862,43.5184948 L42.431219,46.5321655 C41.9704909,46.6382807 41.7579417,45.9766214 42.1904118,45.7843657 L54.3671495,40.3799827 C54.4764956,40.3312946 54.4359515,40.1652556 54.3180051,40.1727461 L40.7775122,41.0553745 C40.3081838,41.0853365 40.2012948,40.3999573 40.6571085,40.281358 L53.6729857,36.8906664 C53.7884749,36.8607045 53.7749602,36.6896718 53.6570138,36.6784361 L40.1496933,35.4000604 C39.6852793,35.3551175 39.6852793,34.6672416 40.1496933,34.6222987 L53.6865004,33.3414262 C53.7995324,33.3301905 53.8118185,33.1678967 53.7024723,33.1391832 L40.6571085,29.7410011 C40.2012948,29.6224018 40.3081838,28.9370227 40.7775122,28.9669846 L53.7774174,29.8146575 C57.1020317,35.9893117 64.1173856,38.4486867 70.277628,40.6209266 C76.2769227,42.7170132 81.4358493,44.5309583 81.4358493,49.2287391 C81.4358493,50.4821465 80.9382629,51.5907379 79.9504618,52.5033283 L79.9504618,52.5033283 Z M25.5292536,43.5859091 L32.0961653,16.6326571 L38.6888779,43.5859091 L25.5292536,43.5859091 L25.5292536,43.5859091 Z M42.431219,23.4889452 L52.2662291,25.742332 C52.5254655,26.943306 52.9775934,28.2578856 53.477637,29.2478777 L42.1904118,24.2379934 C41.7579417,24.0457377 41.9704909,23.3840785 42.431219,23.4889452 L42.431219,23.4889452 Z M45.1378433,18.3667038 L51.8214729,21.0957361 C51.8165585,21.9059566 51.8558739,22.9983186 51.9418765,23.8235201 L44.7729466,19.0782996 C44.3724203,18.8123875 44.6930871,18.1856838 45.1378433,18.3667038 L45.1378433,18.3667038 Z M48.7806672,13.7550635 L52.3399456,15.9535201 C52.2232278,16.5440197 52.0819379,17.3392593 51.9971639,17.899797 L48.2941382,14.4092323 C47.9366132,14.0721606 48.3629403,13.4978903 48.7806672,13.7550635 L48.7806672,13.7550635 Z M151.871968,67.1060235 C151.871968,67.1060235 150.809222,65.9075463 149.049854,63.9750019 C146.873989,61.5967738 146.989478,59.0749781 146.989478,59.0749781 L146.989478,2 L125.732096,2 L125.732096,47.6482474 C125.471631,51.971504 121.315249,53.0676113 119.020208,52.991458 C115.723852,52.8903365 113.805994,51.0002382 113.805994,47.7793308 L113.805994,2 L93.1014859,2 C93.1014859,2 84.4582259,2.01373255 78.5142186,2.01373255 C67.1815349,2.01373255 56.4877275,3.78523161 52.8694759,13.3680553 L50.7353831,4.88133885 C50.2119959,3.19473192 48.4268279,2 46.6502602,2 L9.64703301,2 C9.10767393,2 8.90741076,2.17727475 9.18261904,2.56178617 C9.18261904,2.56178617 10.1863921,3.53554887 12.0145614,5.66159742 C14.5454946,8.60161171 13.5576935,12.525376 13.5576935,12.525376 L0,67.6490834 L19.730222,67.6490834 L22.5646215,55.5469609 L41.6105087,55.5469609 L44.5751407,67.6490834 L70.5516077,67.6490834 C81.2159284,67.6490834 89.888675,66.5442373 94.1630035,59.7828286 C97.3598425,65.9537376 104.242507,68.8475606 116.388529,67.7839121 C120.618628,67.4168785 124.757809,65.4094292 126.533149,62.2047512 L127.372288,64.8613756 C128.070138,66.4718293 129.523581,67.6540771 131.588872,67.6540771 L151.432126,67.6528287 C151.971485,67.6528287 152.145947,67.4892865 151.871968,67.1060235 L151.871968,67.1060235 L151.871968,67.1060235 Z" id="Fill-24"></path>
                    </g>
                </g>
            </g>
        </g>
    </g>
</svg>