<?xml version="1.0" encoding="UTF-8"?>
<svg width="411px" height="229px" viewBox="0 0 411 229" version="1.1" xmlns="http://www.w3.org/2000/svg" xmlns:xlink="http://www.w3.org/1999/xlink" xmlns:sketch="http://www.bohemiancoding.com/sketch/ns">
    <!-- Generator: Sketch 3.4.2 (15855) - http://www.bohemiancoding.com/sketch -->
    <title>gfa_logo</title>
    <desc>Created with Sketch.</desc>
    <defs></defs>
    <g id="Page-1" stroke="none" stroke-width="1" fill="none" fill-rule="evenodd" sketch:type="MSPage">
        <g id="gfa_logo" sketch:type="MSLayerGroup" fill="#DDDDDD">
            <g id="Page-1" sketch:type="MSShapeGroup">
                <g id="gfa_logo">
                    <g id="GFA">
                        <path d="M39.4391831,51.8846587 L39.4391831,47.3535846 C38.1237625,48.5386348 37.0845432,49.3760702 36.460088,49.7933937 C31.8884471,52.8605823 26.9694761,53 25.0296002,53 C23.2975681,53 19.6958652,52.8605823 15.6073458,50.9087351 C6.74026548,46.5877169 3,36.7587717 3,27.2783706 C3,23.6544408 3.69281282,10.5491805 15.0540193,4.13596797 C17.0622527,2.95184728 21.1498484,1 27.1071149,1 C36.2531679,1 41.864028,5.32101811 44.4274354,7.62140955 C46.1594674,9.15500384 47.2679679,10.5491805 48.6535936,12.3616101 L39.3708256,18.0080255 C39.1629817,17.6594813 37.7773561,15.4278692 36.2531679,14.1043309 C33.1355102,11.2462688 29.3943209,11.1068511 28.0086953,11.1068511 C27.1071149,11.1068511 23.8518184,11.17656 21.2893347,12.8495719 C18.3785971,14.7317104 15.1925819,19.0536579 15.1925819,26.9298264 C15.1925819,27.9754589 15.1925819,34.8766332 18.586441,39.0591631 C19.833504,40.5927574 21.4962548,41.4292634 22.1207101,41.7778076 C23.0213667,42.1951311 25.237444,43.1022754 28.0086953,43.1022754 C28.8391469,43.1022754 30.3642589,43.1022754 32.2348535,42.4748959 C33.2047915,42.1263517 36.1838866,40.9413016 37.6387935,37.9438218 C38.3999639,36.4102275 38.6087314,34.3189626 38.6780127,33.9007096 L27.7315702,33.9007096 L27.7315702,24.5606556 L49,24.5606556 L49,51.8846587 L39.4391831,51.8846587 L39.4391831,51.8846587 Z" id="Fill-1"></path>
                        <path d="M59,54 L59,3 L71.8499366,3 L71.8499366,43.2368973 L92,43.2368973 L92,54 L59,54 Z" id="Fill-4"></path>
                        <path d="M128.986214,15.1433963 C128.336967,14.2942339 126.822058,12.5251455 124.080795,11.3919855 C121.91664,10.5437666 120.041039,10.473003 119.175377,10.473003 C116.362937,10.473003 114.415197,11.3919855 113.477397,11.8882737 C108.355563,14.7188151 106.5521,20.874299 106.5521,26.1815641 C106.5521,32.9739199 108.716255,36.6545671 110.808272,38.8482367 C113.044566,41.1834333 116.073421,42.4562334 119.391792,42.4562334 C121.05194,42.4562334 125.018596,42.0316522 128.19269,38.7067096 C131.07823,35.6638777 132.088169,31.7011198 132.232446,27.7393054 C132.448862,21.4413508 130.501122,17.1955388 128.986214,15.1433963 M135.334402,47.7634985 C132.593139,49.957168 127.686759,53 119.319654,53 C116.21866,53 107.777493,52.5046553 101.285989,45.8538266 C94.432831,38.7774732 94,29.2951596 94,26.3240347 C94,23.7048404 94.3606925,16.628487 98.8332799,10.1899489 C101.430266,6.4394816 107.345624,0 119.175377,0 C128.842898,0 134.685155,4.24581204 137.35428,6.93482634 C142.259699,11.8882737 145,20.0260801 145,26.8891994 C145,34.5316611 141.60949,42.7392876 135.334402,47.7634985" id="Fill-6"></path>
                        <path d="M179.821426,32.9072469 C178.898964,32.5460366 177.906489,32.4015525 175.777729,32.4015525 L164.921054,32.4015525 L164.921054,44.7539804 L173.648969,44.7539804 C178.119365,44.7539804 180.318137,44.248286 181.950186,42.51544 C182.517855,41.8642983 183.299347,40.7093886 183.299347,38.6143691 C183.299347,34.8568191 181.240599,33.411978 179.821426,32.9072469 M178.54417,12.8971613 C177.906489,12.6794719 177.124997,12.535951 175.705824,12.535951 L164.921054,12.535951 L164.921054,23.1545697 L174.358556,23.1545697 C174.429514,23.1545697 176.203481,23.0823276 177.196902,22.9378435 C180.035248,22.4321491 180.956765,21.1317922 181.382517,19.9759193 C181.52538,19.614709 181.808269,18.7478044 181.808269,17.5928948 C181.808269,16.509264 181.595393,13.9075868 178.54417,12.8971613 M190.039473,50.8223129 C185.923871,53.6387897 181.099628,54 176.273493,54 L153,54 L153,3 L173.577064,3 C174.926225,3 176.273493,3 177.551695,3.07127883 C182.730731,3.28896821 188.265506,3.93914669 191.671522,8.56263811 C192.663997,9.86203184 194.08317,12.2469828 194.08317,16.0748484 C194.08317,22.7211173 189.755638,25.5385574 187.556866,26.5489829 C186.349623,27.0556405 185.640036,27.2714035 183.369359,27.7780611 C184.078946,27.8503031 184.71852,27.993824 185.356201,28.1392713 C191.244824,29.2229021 193.658364,31.9671369 194.864661,34.4956088 C195.290413,35.3634767 196,37.2408068 196,39.7692787 C196,42.0087824 195.290413,47.2824523 190.039473,50.8223129" id="Fill-8"></path>
                        <path d="M227.355998,15.1364357 L221.070939,36.6631979 L234.00034,36.6631979 L227.355998,15.1364357 L227.355998,15.1364357 Z M239.418494,54 L236.890022,45.8368021 L218.109015,45.8368021 L215.580543,54 L202,54 L220.925492,3 L234.218029,3 L253,54 L239.418494,54 L239.418494,54 Z" id="Fill-10"></path>
                        <path d="M258,54 L258,3 L270.849342,3 L270.849342,43.2368973 L291,43.2368973 L291,54 L258,54 Z" id="Fill-12"></path>
                        <path d="M17.3391557,98.751714 L17.3391557,109.51578 L40.9666896,109.51578 L40.9666896,119.339736 L17.3391557,119.339736 L17.3391557,140 L5,140 L5,89 L43,89 L43,98.751714 L17.3391557,98.751714 Z" id="Fill-14"></path>
                        <path d="M73.569432,98.4627458 L63.2165575,98.4627458 L63.2165575,112.332257 L73.2942511,112.332257 C73.7774282,112.332257 75.1579342,112.332257 76.5375198,111.826562 C80.4719618,110.453963 80.6100124,106.552893 80.6100124,105.253499 C80.6100124,98.6072299 75.7092162,98.4627458 73.569432,98.4627458 L73.569432,98.4627458 L73.569432,98.4627458 Z M80.6100124,140 L70.8783657,121.795966 L63.2855828,121.795966 L63.2855828,140 L51,140 L51,89 L72.9491246,89 C74.3287102,89 75.7092162,89 77.0897222,89.0712788 C79.2985317,89.2157629 87.0293652,89.7224205 90.8257566,97.0179047 C91.5160096,98.3905037 92.758465,101.352428 92.758465,105.542467 C92.758465,111.248626 90.6186807,114.283755 88.9620735,115.944359 C88.2718206,116.66678 87.4425966,117.316958 86.6842387,117.823616 C85.7869098,118.328347 84.7515303,118.834042 82.7497967,119.629667 L94,140 L80.6100124,140 L80.6100124,140 Z" id="Fill-16"></path>
                        <path d="M102,140 L102,89 L137.804087,89 L137.804087,98.823956 L114.071578,98.823956 L114.071578,108.143181 L136.227346,108.143181 L136.227346,117.823616 L114.071578,117.823616 L114.071578,129.958355 L140,129.958355 L140,140 L102,140 Z" id="Fill-18"></path>
                        <path d="M189.996848,130.68302 C185.632838,138.343648 176.547113,139.378868 174.115669,139.654927 C172.470222,139.861971 170.752281,140 169.036248,140 C159.020488,140 153.369691,136.757231 150.007258,134.133753 C148.647022,133.030439 148.004106,132.340292 146,130.061888 L155.587467,124.264655 C155.801136,124.47262 156.802712,125.575934 157.804288,126.335096 C161.095181,128.958573 165.959978,130.406961 170.180906,130.406961 C170.752281,130.406961 172.470222,130.406961 174.115669,129.924779 C174.473374,129.855764 179.481254,128.47547 179.481254,124.748678 C179.481254,120.262725 172.755433,120.124696 168.248341,119.503564 C165.888437,119.227505 163.456038,118.813417 161.095181,118.261299 C157.446583,117.364109 154.084149,116.05283 151.581163,113.154214 C151.079421,112.603017 150.077845,111.359833 149.434929,109.566371 C149.219351,108.876225 148.791058,107.287967 148.791058,105.286542 C148.791058,104.872454 148.861646,103.286036 149.077223,101.905743 C149.649552,98.800083 151.00788,96.3155549 153.441233,94.1070855 C155.945173,91.8296014 160.880557,89 169.17933,89 C172.254645,89 178.979512,89.3450733 185.846508,93.8310268 C187.564449,94.9352615 188.566025,95.7634376 191.426717,98.178951 L182.127322,104.596395 C179.337218,101.974758 177.405607,100.455515 173.613927,99.2831857 C172.970056,99.1451563 171.039399,98.593039 168.893165,98.593039 C163.742203,98.593039 161.381345,101.490735 161.381345,103.769139 C161.381345,105.080418 162.096757,105.976688 162.454463,106.321762 C164.17145,108.117063 166.961554,108.047128 171.68327,108.737275 C174.543962,109.152283 177.33502,109.703481 180.124171,110.324613 C181.911745,110.669686 188.422943,111.91287 190.998424,117.847211 C191.35613,118.744402 192,120.607798 192,123.092326 C192,124.47262 191.856918,127.370316 189.996848,130.68302" id="Fill-20"></path>
                        <path d="M229.584408,140 L229.584408,118.256105 L211.485742,118.256105 L211.485742,140 L199,140 L199,89 L211.557762,89 L211.557762,107.42076 L229.584408,107.42076 L229.584408,89 L242,89 L242,140 L229.584408,140 Z" id="Fill-22"></path>
                        <path d="M296.795203,140 L297.800383,98.9684401 L286.52801,140 L275.543789,140 L264.344171,98.9684401 L265.348394,140 L253,140 L253,89 L271.524027,89 L281.072277,124.685648 L290.47693,89 L309,89 L309,140 L296.795203,140 Z" id="Fill-24"></path>
                        <path d="M339.35504,101.136436 L333.071182,122.663198 L346.001058,122.663198 L339.35504,101.136436 L339.35504,101.136436 Z M351.419007,140 L348.890631,131.836802 L330.108406,131.836802 L327.58003,140 L314,140 L332.926703,89 L346.217776,89 L365,140 L351.419007,140 L351.419007,140 Z" id="Fill-26"></path>
                        <path d="M398.746773,140 L380.615776,109.051127 L381.040743,140 L369,140 L369,90 L381.253227,90 L399.52588,121.373827 L399.030085,90 L411,90 L411,140 L398.746773,140 Z" id="Fill-28"></path>
                        <path d="M25.3550398,190.136436 L19.0711817,211.663198 L32.0010576,211.663198 L25.3550398,190.136436 L25.3550398,190.136436 Z M37.419007,229 L34.8906306,220.836802 L16.1084062,220.836802 L13.5800298,229 L0,229 L18.9267031,178 L32.2177756,178 L51,229 L37.419007,229 L37.419007,229 Z" id="Fill-31"></path>
                        <path d="M93.7099249,220.792374 C91.4205135,223.338917 85.1246319,229 75.2515449,229 C73.4629422,229 69.3143379,228.788653 64.9501472,226.877094 C51.6429431,220.932957 51,206.427376 51,202.464618 C51,199.42273 51.3577205,191.567034 57.1518394,184.633151 C59.4412509,181.80261 65.1647796,176 75.4661773,176 C82.2628676,176 88.8439716,178.759778 93.2797064,183.783989 C95.1398532,185.906895 96.2845589,188.100564 96.7863216,188.949727 L86.8416905,193.832411 C86.1262494,192.41714 85.6254407,191.638741 85.1952221,191.072633 C84.2661026,189.728126 81.1897059,186.260712 76.0385301,186.260712 C74.607648,186.260712 71.2450749,186.543767 68.3833105,189.232781 C66.3085314,191.143396 63.5908092,195.318445 63.5908092,202.181564 C63.5908092,202.818436 63.5908092,204.022359 63.8044876,205.578214 C64.6639708,212.442277 67.6678694,215.555872 70.4580897,217.11267 C71.3881631,217.677835 73.319854,218.52794 76.0385301,218.52794 C83.1213969,218.52794 85.840073,213.079148 86.9838248,211.168533 L97,216.192744 C95.4975737,218.456233 94.425366,219.943211 93.7099249,220.792374" id="Fill-33"></path>
                        <path d="M125.35504,190.136436 L119.071182,211.663198 L132.001058,211.663198 L125.35504,190.136436 L125.35504,190.136436 Z M137.419007,229 L134.890631,220.836802 L116.108406,220.836802 L113.58003,229 L100,229 L118.926703,178 L132.217776,178 L151,229 L137.419007,229 L137.419007,229 Z" id="Fill-35"></path>
                        <path d="M186.20503,192.953142 C185.477151,192.086237 183.949576,190.352428 181.183636,189.48456 C178.782607,188.690861 176.59897,188.762139 174.123212,188.762139 L168.956243,188.762139 L168.956243,218.741628 L172.885818,218.741628 C176.670788,218.741628 181.038061,218.525865 184.385333,216.069636 C187.006667,214.1191 189.116545,210.433792 189.116545,203.499518 C189.116545,199.598448 188.680788,196.05955 186.20503,192.953142 M196.104182,221.559069 C194.43006,223.437362 190.645091,226.76146 184.385333,228.205337 C181.547576,228.855516 179.071817,229 176.160302,229 L156,229 L156,178 L172.376303,178 C173.976666,178 175.507152,178 177.034727,178.071279 C179.218364,178.215763 187.806363,178.432489 194.066121,183.561675 C195.012363,184.284095 196.540909,185.656694 198.143213,188.185166 C199.961939,191.002606 202,195.552893 202,203.066066 C202,212.674259 198.870121,218.380418 196.104182,221.559069" id="Fill-37"></path>
                        <path d="M209,229 L209,178 L244.804087,178 L244.804087,187.823956 L221.072493,187.823956 L221.072493,197.143181 L243.227346,197.143181 L243.227346,206.823616 L221.072493,206.823616 L221.072493,218.958355 L247,218.958355 L247,229 L209,229 Z" id="Fill-39"></path>
                        <path d="M301.794455,229 L302.800574,187.96844 L291.527437,229 L280.543403,229 L269.343978,187.96844 L270.348183,229 L258,229 L258,178 L276.52371,178 L286.071797,213.685648 L295.47629,178 L314,178 L314,229 L301.794455,229 Z" id="Fill-41"></path>
                        <path d="M348.713298,204.872117 L348.713298,229 L336.143181,229 L336.143181,205.233328 L317,178 L331.591932,178 L342.572724,195.263924 L353.48031,178 L368,178 L348.713298,204.872117 Z" id="Fill-43"></path>
                    </g>
                </g>
            </g>
        </g>
    </g>
</svg>