<?xml version="1.0" encoding="UTF-8"?>
<svg width="369px" height="359px" viewBox="0 0 369 359" version="1.1" xmlns="http://www.w3.org/2000/svg" xmlns:xlink="http://www.w3.org/1999/xlink" xmlns:sketch="http://www.bohemiancoding.com/sketch/ns">
    <!-- Generator: Sketch 3.4.2 (15855) - http://www.bohemiancoding.com/sketch -->
    <title>basic_info_600x600</title>
    <desc>Created with Sketch.</desc>
    <defs></defs>
    <g id="Page-1" stroke="none" stroke-width="1" fill="none" fill-rule="evenodd" sketch:type="MSPage">
        <g id="basic_info_600x600" sketch:type="MSLayerGroup" transform="translate(3.000000, 0.000000)">
            <g id="Page-1" sketch:type="MSShapeGroup">
                <g id="basic_info_600x600">
                    <g id="basic-info">
                        <path d="M4.322458,179.112174 C4.322458,80.191114 84.513738,-0.000166 183.434798,-0.000166 C282.355858,-0.000166 362.547138,80.191114 362.547138,179.112174 C362.547138,278.033234 282.355858,358.224514 183.434798,358.224514 C84.513738,358.224514 4.322458,278.033234 4.322458,179.112174" id="Fill-1" fill="#E9E9E9"></path>
                        <path d="M224.065788,251.380938 L16.844668,251.380938 C7.676488,251.380938 0.244668,243.949118 0.244668,234.780938 L0.244668,99.324938 C0.244668,90.156758 7.676488,82.724938 16.844668,82.724938 L224.065788,82.724938 C233.233968,82.724938 240.665788,90.156758 240.665788,99.324938 L240.665788,234.780938 C240.665788,243.949118 233.233968,251.380938 224.065788,251.380938" id="Fill-4" fill="#FCFCFC"></path>
                        <path d="M224.065788,251.380938 L16.844668,251.380938 C7.676488,251.380938 0.244668,243.949118 0.244668,234.780938 L0.244668,99.324938 C0.244668,90.156758 7.676488,82.724938 16.844668,82.724938 L224.065788,82.724938 C233.233968,82.724938 240.665788,90.156758 240.665788,99.324938 L240.665788,234.780938 C240.665788,243.949118 233.233968,251.380938 224.065788,251.380938 L224.065788,251.380938 Z" id="Stroke-6" stroke="#9A9A9A" stroke-width="5.81"></path>
                        <path d="M94.354052,107.736988 L212.778452,107.736988" id="Stroke-8" stroke="#9A9A9A" stroke-width="5.81"></path>
                        <path d="M94.354052,131.640988 L212.778452,131.640988" id="Stroke-10" stroke="#9A9A9A" stroke-width="5.81"></path>
                        <path d="M94.354052,155.544988 L212.778452,155.544988" id="Stroke-12" stroke="#9A9A9A" stroke-width="5.81"></path>
                        <path d="M26.946764,180.332938 L212.778784,180.332938" id="Stroke-14" stroke="#9A9A9A" stroke-width="5.81"></path>
                        <path d="M26.946764,203.572938 L212.778784,203.572938" id="Stroke-16" stroke="#9A9A9A" stroke-width="5.81"></path>
                        <path d="M26.946764,227.476938 L212.778784,227.476938" id="Stroke-18" stroke="#9A9A9A" stroke-width="5.81"></path>
                        <path d="M59.181806,116.543454 C59.181806,122.863074 54.059046,127.987494 47.737766,127.987494 C41.418146,127.987494 36.295386,122.863074 36.295386,116.543454 C36.295386,110.223834 41.418146,105.099414 47.737766,105.099414 C54.059046,105.099414 59.181806,110.223834 59.181806,116.543454 L59.181806,116.543454 Z" id="Stroke-20" stroke="#9A9A9A" stroke-width="5.81"></path>
                        <path d="M68.52993,152.432654 C68.52993,163.914874 26.94693,163.914874 26.94693,152.432654 C26.94693,140.950434 36.25621,131.641154 47.73843,131.641154 C59.22065,131.641154 68.52993,140.950434 68.52993,152.432654 L68.52993,152.432654 Z" id="Stroke-22" stroke="#9A9A9A" stroke-width="5.81"></path>
                        <path d="M345.94747,290.209666 L176.25895,290.209666 C167.09077,290.209666 159.65895,282.777846 159.65895,273.609666 L159.65895,162.942446 C159.65895,153.774266 167.09077,146.342446 176.25895,146.342446 L345.94747,146.342446 C355.11565,146.342446 362.54747,153.774266 362.54747,162.942446 L362.54747,273.609666 C362.54747,282.777846 355.11565,290.209666 345.94747,290.209666" id="Fill-24" fill="#FFFFFF"></path>
                        <path d="M345.94747,290.209666 L176.25895,290.209666 C167.09077,290.209666 159.65895,282.777846 159.65895,273.609666 L159.65895,162.942446 C159.65895,153.774266 167.09077,146.342446 176.25895,146.342446 L345.94747,146.342446 C355.11565,146.342446 362.54747,153.774266 362.54747,162.942446 L362.54747,273.609666 C362.54747,282.777846 355.11565,290.209666 345.94747,290.209666 L345.94747,290.209666 Z" id="Stroke-26" stroke="#9A9A9A" stroke-width="5.81"></path>
                        <path d="M169.500758,152.556656 L249.901198,232.957096 C256.039878,239.095776 265.991578,239.095776 272.130258,232.957096 L352.704998,152.382356" id="Stroke-28" stroke="#9A9A9A" stroke-width="5.81"></path>
                    </g>
                </g>
            </g>
        </g>
    </g>
</svg>