<?xml version="1.0" encoding="UTF-8"?>
<svg width="356px" height="287px" viewBox="0 0 356 287" version="1.1" xmlns="http://www.w3.org/2000/svg" xmlns:xlink="http://www.w3.org/1999/xlink" xmlns:sketch="http://www.bohemiancoding.com/sketch/ns">
    <!-- Generator: Sketch 3.4.2 (15855) - http://www.bohemiancoding.com/sketch -->
    <title>facts_600x600</title>
    <desc>Created with Sketch.</desc>
    <defs></defs>
    <g id="Page-1" stroke="none" stroke-width="1" fill="none" fill-rule="evenodd" sketch:type="MSPage">
        <g id="facts_600x600" sketch:type="MSLayerGroup" transform="translate(0.000000, -1.000000)">
            <g id="Page-1" sketch:type="MSShapeGroup">
                <g id="facts_600x600">
                    <g id="facts">
                        <g id="Group-3" transform="translate(0.000000, 0.132832)" fill="#E9E9E9">
                            <g id="Fill-1-Clipped">
                                <path d="M0,144.013584 C0,65.021424 64.03488,0.986544 143.02704,0.986544 C222.0192,0.986544 286.05408,65.021424 286.05408,144.013584 C286.05408,223.005744 222.0192,287.040624 143.02704,287.040624 C64.03488,287.040624 0,223.005744 0,144.013584" id="Fill-1"></path>
                            </g>
                        </g>
                        <path d="M325.392288,263.0362 L275.831088,213.475 C270.149568,207.79348 270.149568,198.58324 275.831088,192.90172 L275.831088,192.90172 C281.509488,187.2202 290.722848,187.2202 296.401248,192.90172 L345.965568,242.46292 C351.647088,248.14444 351.647088,257.35468 345.965568,263.0362 L345.965568,263.0362 C340.284048,268.71772 331.073808,268.71772 325.392288,263.0362" id="Fill-4" fill="#F7F7F7"></path>
                        <path d="M325.392288,263.0362 L275.831088,213.475 C270.149568,207.79348 270.149568,198.58324 275.831088,192.90172 L275.831088,192.90172 C281.509488,187.2202 290.722848,187.2202 296.401248,192.90172 L345.965568,242.46292 C351.647088,248.14444 351.647088,257.35468 345.965568,263.0362 L345.965568,263.0362 C340.284048,268.71772 331.073808,268.71772 325.392288,263.0362 L325.392288,263.0362 Z" id="Stroke-6" stroke="#AAAAAA" stroke-width="10.92"></path>
                        <path d="M154.716744,71.76928 C189.613944,36.87208 246.198264,36.87208 281.095464,71.76928 C315.995784,106.66648 315.995784,163.2508 281.095464,198.148 C246.198264,233.04832 189.613944,233.04832 154.716744,198.148 C119.819544,163.2508 119.819544,106.66648 154.716744,71.76928" id="Fill-8" fill="#F7F7F7"></path>
                        <path d="M154.716744,71.76928 C189.613944,36.87208 246.198264,36.87208 281.095464,71.76928 C315.995784,106.66648 315.995784,163.2508 281.095464,198.148 C246.198264,233.04832 189.613944,233.04832 154.716744,198.148 C119.819544,163.2508 119.819544,106.66648 154.716744,71.76928 L154.716744,71.76928 Z" id="Stroke-10" stroke="#AAAAAA" stroke-width="10.92"></path>
                        <path d="M164.958144,82.010992 C194.201904,52.767232 241.613424,52.767232 270.854064,82.010992 C300.097824,111.254752 300.097824,158.666272 270.854064,187.906912 C241.613424,217.150672 194.201904,217.150672 164.958144,187.906912 C135.714384,158.666272 135.714384,111.254752 164.958144,82.010992 L164.958144,82.010992 Z" id="Stroke-12" stroke="#D9D9D9" stroke-width="6.24"></path>
                        <path d="M162.222216,123.25552 C168.686856,116.79088 179.166936,116.79088 185.628456,123.25552 C192.093096,129.72016 192.093096,140.20024 185.628456,146.66176 C179.166936,153.1264 168.686856,153.1264 162.222216,146.66176 C155.757576,140.20024 155.757576,129.72016 162.222216,123.25552" id="Fill-14" fill="#FFFFFF"></path>
                    </g>
                </g>
            </g>
        </g>
    </g>
</svg>